<svg width="11" height="19" viewBox="0 0 11 19" fill="none" xmlns="http://www.w3.org/2000/svg">
<path d="M8.82028 0.375989L0.278801 8.79815C0.177418 8.89842 0.105775 9.00704 0.0638701 9.12401C0.0212895 9.24099 -8.42204e-07 9.36631 -8.30516e-07 9.5C-8.18829e-07 9.63369 0.0212895 9.75902 0.0638702 9.87599C0.105775 9.99296 0.177419 10.1016 0.278801 10.2018L8.82028 18.6491C9.05684 18.883 9.35253 19 9.70737 19C10.0622 19 10.3664 18.8747 10.6198 18.624C10.8733 18.3733 11 18.0809 11 17.7467C11 17.4125 10.8733 17.1201 10.6198 16.8694L3.1682 9.5L10.6198 2.13061C10.8564 1.89666 10.9747 1.60857 10.9747 1.26633C10.9747 0.923429 10.8479 0.626649 10.5945 0.375989C10.341 0.125329 10.0453 -8.78189e-07 9.70737 -8.48646e-07C9.36943 -8.19102e-07 9.07373 0.12533 8.82028 0.375989Z" fill="#1B1B1B" fill-opacity="0.3"/>
</svg>
